<?xml version="1.0" encoding="utf-8"?>
<!-- Generator: Adobe Illustrator 19.2.1, SVG Export Plug-In . SVG Version: 6.00 Build 0)  -->
<svg version="1.1" id="layer" xmlns="http://www.w3.org/2000/svg" xmlns:xlink="http://www.w3.org/1999/xlink" x="0px" y="0px"
	 viewBox="0 0 652 652" style="enable-background:new 0 0 652 652;" xml:space="preserve">
<style type="text/css">
	.st0{fill:#1B335B;}
</style>
<g>
	<path class="st0" d="M531.7,335.2l50,0.1l0,19.4l-23.6,0l0,6.8l21.5,0.1v18.2l-21.5,0v7.5l24.3,0l0,19.3l-50.6-0.1L531.7,335.2z
		 M443.9,335.1l29.1,0.1l7.9,25.8c1.1,3.8,2.9,9.2,3.6,16.9h0.5c0.9-6.6,2.5-11.9,3.9-16.2l8.4-26.4H526l-28.6,71.2l-25,0
		L443.9,335.1z M420.4,380.5l-2.3-8c-1-3.8-2.6-8.9-3-15.7h-0.5c-0.4,6.8-2,11.8-3.1,15.7l-2.3,8L420.4,380.5z M400.2,335.1h30
		l26.1,71.2h-28.9l-2.4-9h-20.3l-2.3,9l-28.9-0.1L400.2,335.1z M325.5,381.9l-5.7,24.3l-23.4,0L274.6,335l27,0.1l5.8,31.4
		c0.5,3,1.5,7.7,1.7,14h0.7c0.2-5.5,1.3-9.5,1.8-12.1l7.2-33.2h18.9l7.1,33.2c0.6,2.6,1.6,6.6,1.8,12.2h0.6c0.2-6.4,1.2-10.9,1.7-14
		l5.9-31.4l27,0l-21.9,71.2h-23.5l-5.6-24.3c-0.7-3.2-1.8-7-2.1-11.7h-1C327.3,375,326.2,378.8,325.5,381.9 M197.8,271.4v-22.7
		c-71.6,0-129.9,55.5-129.9,123.7h23.9C91.8,316.6,139.4,271.4,197.8,271.4 M197.8,226.4v-22.8c-97.7,0-177.2,75.7-177.2,168.7h23.9
		C44.6,291.9,113.3,226.4,197.8,226.4 M219.1,405.2H159l32.5-48.5h-31.2l13.5-20.6H233l-31.6,47.9H233L219.1,405.2z M197.8,305
		c-39.1,0-70.8,30.1-70.8,67.4c0,37.2,31.7,67.4,70.8,67.4c39.1,0,70.8-30.2,70.8-67.4C268.6,335.1,236.9,305,197.8,305"/>
	<path class="st0" d="M607.7,345.4h1.2c1.5,0,2.3-0.5,2.3-1.5c0-1.2-0.8-1.7-2.5-1.7h-1V345.4z M609.3,340.1c3.6,0,5.5,1.2,5.5,3.5
		c0,1.6-1,2.8-2.7,3.3l2.8,5.3h-3.9l-2.3-4.8h-1v4.8h-3.5v-12H609.3z M602.6,339.9c-1.9,1.8-2.9,4.1-2.9,6.5c0,2.4,0.9,4.6,2.7,6.2
		c1.8,1.8,4.2,2.8,6.7,2.8c2.4,0,4.9-0.9,6.7-2.6c1.8-1.6,2.8-3.9,2.8-6.4c0-2.4-0.9-4.6-2.7-6.3c-1.8-1.7-4.2-2.7-6.8-2.7
		C606.6,337.4,604.3,338.2,602.6,339.9 M617.4,338.7c2.1,2,3.2,4.7,3.2,7.7c0,3.1-1.2,5.8-3.4,7.8c-2.3,2-5.2,3.2-8.1,3.2
		c-3.1,0-6-1.2-8.2-3.3c-2.1-2.1-3.3-4.8-3.3-7.7c0-3,1.2-5.8,3.5-7.9c2.2-2,4.9-3.1,8-3.1C612.3,335.4,615.2,336.5,617.4,338.7"/>
</g>
</svg>
